<svg width="48" height="48" viewBox="0 0 48 48" fill="none" xmlns="http://www.w3.org/2000/svg">
<path d="M6 40.9V16.3C5.53333 16.2333 5.08333 15.9 4.65 15.3C4.21667 14.7 4 14.05 4 13.35V7C4 6.23333 4.3 5.54167 4.9 4.925C5.5 4.30833 6.2 4 7 4H41C41.7667 4 42.4583 4.30833 43.075 4.925C43.6917 5.54167 44 6.23333 44 7V13.35C44 14.05 43.7833 14.7 43.35 15.3C42.9167 15.9 42.4667 16.2333 42 16.3V40.9C42 41.6667 41.6917 42.375 41.075 43.025C40.4583 43.675 39.7667 44 39 44H9C8.2 44 7.5 43.675 6.9 43.025C6.3 42.375 6 41.6667 6 40.9ZM9 16.35V41H39V16.35H9ZM41 13.35V7H7V13.35H41ZM18 26.85H30V23.85H18V26.85Z" fill="black"/>
</svg>
