<svg width="48" height="48" viewBox="0 0 48 48" fill="none" xmlns="http://www.w3.org/2000/svg">
<path d="M22.5 9.5V2H25.5V9.5H22.5ZM35.3 14.8L33.2 12.65L38.5 7.35L40.6 9.5L35.3 14.8ZM38.5 25.5V22.5H46V25.5H38.5ZM38.55 40.6L33.25 35.3L35.4 33.15L40.7 38.45L38.55 40.6ZM12.7 14.8L7.4 9.5L9.5 7.4L14.8 12.7L12.7 14.8ZM12 39H21C22.1111 39 23.0555 38.6123 23.8333 37.8368C24.6111 37.0613 25 36.1196 25 35.0117C25 33.9039 24.6206 32.95 23.8619 32.15C23.1031 31.35 22.1658 30.95 21.05 30.95H18.85L17.95 28.9C17.4452 27.7083 16.6518 26.7604 15.57 26.0562C14.4882 25.3521 13.2982 25 12 25C10.0556 25 8.40278 25.6794 7.04165 27.0383C5.68055 28.3971 5 30.0471 5 31.9883C5 33.9294 5.68055 35.5833 7.04165 36.95C8.40278 38.3167 10.0556 39 12 39ZM12 42C9.23333 42 6.875 41.025 4.925 39.075C2.975 37.125 2 34.7667 2 32C2 29.2333 2.975 26.875 4.925 24.925C6.875 22.975 9.23333 22 12 22C13.9245 22 15.6807 22.5417 17.2684 23.625C18.8561 24.7083 20.0333 26.15 20.8 27.95C22.8039 27.95 24.4882 28.6765 25.8529 30.1294C27.2176 31.5824 27.9 33.3226 27.9 35.35C27.7333 37.2167 26.9994 38.7917 25.6983 40.075C24.3973 41.3583 22.8312 42 21 42H12ZM27.9 35.35C27.8 34.8372 27.7 34.3372 27.6 33.85C27.5 33.3628 27.4 32.8628 27.3 32.35C29.0333 31.6833 30.4167 30.591 31.45 29.0731C32.4833 27.5551 33 25.8664 33 24.0069C33 21.5023 32.125 19.375 30.375 17.625C28.625 15.875 26.5 15 24 15C21.7595 15 19.799 15.7112 18.1187 17.1337C16.4383 18.5562 15.4487 20.3616 15.15 22.55C14.6167 22.45 14.0917 22.3583 13.575 22.275C13.0583 22.1917 12.5333 22.1 12 22C12.4667 19.0667 13.8417 16.6667 16.125 14.8C18.4083 12.9333 21.0333 12 24 12C27.3333 12 30.1667 13.1667 32.5 15.5C34.8333 17.8333 36 20.6724 36 24.0171C36 26.6057 35.2583 28.9333 33.775 31C32.2917 33.0667 30.3333 34.5167 27.9 35.35Z" fill="black"/>
</svg>
